<?xml version="1.0" standalone="no"?>
<!DOCTYPE svg PUBLIC "-//W3C//DTD SVG 20010904//EN"
 "http://www.w3.org/TR/2001/REC-SVG-20010904/DTD/svg10.dtd">
<svg version="1.0" xmlns="http://www.w3.org/2000/svg"
 width="1200.000000pt" height="1200.000000pt" viewBox="0 0 1200.000000 1200.000000"
 preserveAspectRatio="xMidYMid meet">
<metadata>
Created by potrace 1.11, written by Peter Selinger 2001-2013
</metadata>
<g transform="translate(0.000000,1200.000000) scale(0.100000,-0.100000)"
fill="#000000" stroke="none">
<path d="M0 6000 l0 -6000 6000 0 6000 0 0 6000 0 6000 -6000 0 -6000 0 0
-6000z m3478 3278 c8 -8 12 -56 12 -150 l0 -138 2510 0 2510 0 0 138 c0 94 4
142 12 150 9 9 98 12 340 12 313 0 328 -1 338 -19 6 -12 10 -136 10 -332 0
-277 -2 -315 -17 -331 -14 -16 -33 -18 -150 -18 l-133 0 0 -2590 0 -2590 128
0 c189 0 172 34 172 -346 0 -198 -4 -322 -10 -335 -10 -18 -25 -19 -338 -19
-242 0 -331 3 -340 12 -8 8 -12 56 -12 150 l0 138 -2510 0 -2510 0 0 -138 c0
-94 -4 -142 -12 -150 -9 -9 -98 -12 -340 -12 -313 0 -328 1 -338 19 -6 13 -10
137 -10 335 0 380 -17 346 172 346 l128 0 0 2590 0 2590 -132 0 c-108 0 -135
3 -150 17 -17 15 -18 39 -18 330 0 198 4 322 10 334 10 18 25 19 338 19 242 0
331 -3 340 -12z"/>
<path d="M2890 8940 l0 -250 250 0 250 0 0 250 0 250 -250 0 -250 0 0 -250z"/>
<path d="M8610 8940 l0 -250 250 0 250 0 0 250 0 250 -250 0 -250 0 0 -250z"/>
<path d="M3490 8752 c0 -94 -4 -142 -12 -150 -8 -8 -56 -12 -150 -12 l-138 0
0 -2590 0 -2590 134 0 c109 0 138 -3 150 -16 13 -12 16 -41 16 -150 l0 -134
2510 0 2510 0 0 140 c0 127 2 140 19 150 11 5 78 10 150 10 l131 0 0 2590 0
2590 -138 0 c-94 0 -142 4 -150 12 -8 8 -12 56 -12 150 l0 138 -2510 0 -2510
0 0 -138z m4216 -773 c12 -10 14 -157 14 -875 0 -771 -2 -864 -16 -878 -14
-14 -183 -16 -1709 -16 -1665 0 -1694 0 -1705 19 -7 13 -10 306 -10 880 0 828
1 860 19 873 25 18 3386 15 3407 -3z m8 -2151 c8 -22 6 -32 -9 -48 -18 -20
-22 -20 -1703 -20 -1554 0 -1687 1 -1704 17 -20 18 -23 36 -8 64 11 19 38 19
1713 17 l1702 -3 9 -27z m-2002 -475 c21 -19 24 -56 4 -72 -9 -8 -205 -10
-717 -9 l-704 3 -10 29 c-8 24 -6 31 14 47 22 18 51 19 709 19 624 0 687 -1
704 -17z m1989 -2 c20 -16 22 -23 14 -47 l-10 -29 -704 -3 c-512 -1 -708 1
-717 9 -19 16 -18 49 3 71 15 17 50 18 703 18 660 0 689 -1 711 -19z m-1989
-418 c21 -19 24 -56 4 -72 -9 -8 -205 -10 -717 -9 l-704 3 -10 29 c-8 24 -6
31 14 47 22 18 51 19 709 19 624 0 687 -1 704 -17z m1989 -2 c20 -16 22 -23
14 -47 l-10 -29 -704 -3 c-512 -1 -708 1 -717 9 -19 16 -18 49 3 71 15 17 50
18 703 18 660 0 689 -1 711 -19z m-1989 -418 c21 -19 24 -56 4 -72 -9 -8 -205
-10 -717 -9 l-704 3 -10 29 c-8 24 -6 31 14 47 22 18 51 19 709 19 624 0 687
-1 704 -17z m1989 -2 c20 -16 22 -23 14 -47 l-10 -29 -704 -3 c-512 -1 -708 1
-717 9 -19 16 -18 49 3 71 15 17 50 18 703 18 660 0 689 -1 711 -19z m-1989
-418 c21 -19 24 -56 4 -72 -9 -8 -205 -10 -717 -9 l-704 3 -10 29 c-8 24 -6
31 14 47 22 18 51 19 709 19 624 0 687 -1 704 -17z m1989 -2 c20 -16 22 -23
14 -47 l-10 -29 -704 -3 c-512 -1 -708 1 -717 9 -19 16 -18 49 3 71 15 17 50
18 703 18 660 0 689 -1 711 -19z"/>
<path d="M5278 7525 l722 -365 723 365 722 365 -1445 0 -1445 0 723 -365z"/>
<path d="M4380 7105 c0 -415 3 -755 7 -755 8 0 1475 740 1486 749 6 6 -1471
761 -1488 761 -3 0 -5 -340 -5 -755z"/>
<path d="M6862 7483 c-408 -207 -739 -380 -735 -384 10 -9 1478 -749 1486
-749 4 0 7 340 7 755 0 415 -3 755 -7 754 -5 0 -342 -170 -751 -376z"/>
<path d="M5278 6682 c-389 -197 -710 -361 -714 -365 -4 -4 641 -7 1434 -7 793
0 1442 2 1442 4 0 8 -1427 726 -1441 726 -8 0 -332 -161 -721 -358z"/>
<path d="M2890 3060 l0 -250 250 0 250 0 0 250 0 250 -250 0 -250 0 0 -250z"/>
<path d="M8610 3060 l0 -250 250 0 250 0 0 250 0 250 -250 0 -250 0 0 -250z"/>
</g>
</svg>
