<svg height='100px' width='100px'  fill="#000000" xmlns="http://www.w3.org/2000/svg" xmlns:xlink="http://www.w3.org/1999/xlink" version="1.1" x="0px" y="0px" viewBox="0 0 73.7012 73.6997" enable-background="new 0 0 73.7012 73.6997" xml:space="preserve"><path d="M36.8506,73.6997c20.3193,0,36.8506-16.5308,36.8506-36.8496C73.7012,16.5308,57.1699,0,36.8506,0S0,16.5308,0,36.8496  C0,57.1689,16.5312,73.6997,36.8506,73.6997z M36.8506,68.0308c-8.6133,0-16.4209-3.5107-22.0693-9.1758  c5.834-5.8501,13.7402-9.1704,22.0693-9.1704c8.3281-0.0005,16.2354,3.3193,22.0693,9.1699  C53.2715,64.5195,45.4639,68.0308,36.8506,68.0308z M25.5117,32.6768c0-6.252,5.0859-11.3389,11.3389-11.3389  s11.3389,5.0869,11.3389,11.3389s-5.0859,11.3389-11.3389,11.3389S25.5117,38.9287,25.5117,32.6768z M36.8506,5.6689  c17.1934,0,31.1807,13.9878,31.1807,31.1812c0,6.5366-2.0254,12.6069-5.4766,17.624c-4.1924-4.0845-9.2559-7.0771-14.7686-8.7896  c3.708-3.1221,6.0732-7.792,6.0732-13.0078c0-9.3784-7.6299-17.0078-17.0088-17.0078s-17.0088,7.6294-17.0088,17.0078  c0,5.2163,2.3652,9.8857,6.0742,13.0083c-5.5137,1.7124-10.5771,4.7051-14.7686,8.7896c-3.4521-5.0176-5.4775-11.0879-5.4775-17.625  C5.6699,19.6567,19.6572,5.6689,36.8506,5.6689z"></path></svg>